<svg width="28" height="26" viewBox="0 0 28 26" fill="none" xmlns="http://www.w3.org/2000/svg">
<path d="M6.21973 0.90625C8.59995 0.13631 11.1953 0.475307 13.2939 1.7998L13.5605 1.96777L13.8281 1.7998C15.8575 0.516827 18.5653 0.160157 20.8965 0.907227V0.90625C25.93 2.53001 27.5644 8.04846 26.127 12.54L26.126 12.543C25.0186 16.0643 22.0767 19.1854 19.2969 21.4795C16.5305 23.7624 13.9958 25.1692 13.8008 25.2764H13.7998C13.7267 25.3168 13.6454 25.3379 13.5645 25.3379C13.502 25.3379 13.4412 25.3262 13.3838 25.3037L13.3281 25.2783C13.1321 25.1712 10.6181 23.786 7.8623 21.5146C5.0924 19.2316 2.1467 16.1076 1.00098 12.541L0.980469 12.4785C-0.424285 7.99585 1.21356 2.51951 6.21875 0.90625H6.21973ZM12.8994 2.7207C11.0248 1.48161 8.6754 1.15143 6.52148 1.84668C4.1883 2.59904 2.72069 4.24013 2.00391 6.1748C1.3366 7.97629 1.31937 10.0281 1.83105 11.874L1.94043 12.2402C2.91089 15.2596 5.29261 17.9466 7.625 20.001C9.96787 22.0645 12.3194 23.5403 13.3086 24.127L13.5645 24.2783L13.8193 24.126C14.8113 23.5336 17.1771 22.0419 19.5264 19.9727C21.864 17.9137 24.2458 15.2308 25.1865 12.2432L25.1855 12.2422C25.8051 10.3031 25.8327 8.09725 25.1191 6.17578C24.4004 4.24047 22.9307 2.59964 20.5947 1.84668H20.5938C18.3334 1.12117 15.6999 1.5577 13.8662 2.97656C13.6874 3.11297 13.4437 3.11363 13.2686 2.98145L13.2676 2.98047L12.8994 2.7207ZM18.3936 5.75098C18.4781 5.4926 18.7507 5.34899 19.0146 5.42871V5.42969C20.5273 5.91911 21.6151 7.20412 21.8594 8.75488L21.8965 9.06934C21.9175 9.34194 21.7153 9.57891 21.4453 9.60059H21.4375C21.4246 9.60182 21.4135 9.60254 21.4023 9.60254C21.1796 9.60235 20.9864 9.45236 20.9277 9.24219L20.9111 9.14941C20.8074 7.85889 19.9432 6.76758 18.7139 6.37012C18.453 6.28558 18.3118 6.00777 18.3936 5.75098Z" fill="#634832" stroke="#634832"/>
</svg>
